<svg width="80" height="80" viewBox="0 0 80 80" fill="none" xmlns="http://www.w3.org/2000/svg">
<g clip-path="url(#clip0_135_229)">
<path d="M54.2857 20C54.2857 16.6848 52.7806 13.5054 50.1015 11.1612C47.4224 8.81696 43.7888 7.5 40 7.5C36.2112 7.5 32.5776 8.81696 29.8985 11.1612C27.2194 13.5054 25.7143 16.6848 25.7143 20C25.7143 23.3152 27.2194 26.4946 29.8985 28.8388C32.5776 31.183 36.2112 32.5 40 32.5C43.7888 32.5 47.4224 31.183 50.1015 28.8388C52.7806 26.4946 54.2857 23.3152 54.2857 20ZM17.1429 20C17.1429 14.6957 19.551 9.60859 23.8376 5.85786C28.1241 2.10714 33.9379 0 40 0C46.0621 0 51.8759 2.10714 56.1624 5.85786C60.449 9.60859 62.8571 14.6957 62.8571 20C62.8571 25.3043 60.449 30.3914 56.1624 34.1421C51.8759 37.8929 46.0621 40 40 40C33.9379 40 28.1241 37.8929 23.8376 34.1421C19.551 30.3914 17.1429 25.3043 17.1429 20ZM8.80357 72.5H71.1964C69.6071 62.6094 59.8929 55 48.1607 55H31.8393C20.1071 55 10.3929 62.6094 8.80357 72.5ZM0 75.3594C0 59.9687 14.25 47.5 31.8393 47.5H48.1607C65.75 47.5 80 59.9687 80 75.3594C80 77.9219 77.625 80 74.6964 80H5.30357C2.375 80 0 77.9219 0 75.3594Z" fill="black"/>
</g>
<defs>
<clipPath id="clip0_135_229">
<rect width="80" height="80" fill="white"/>
</clipPath>
</defs>
</svg>
